<?xml version="1.0" encoding="UTF-8"?>
<svg width="17px" height="17px" viewBox="0 0 17 17" version="1.1" xmlns="http://www.w3.org/2000/svg" xmlns:xlink="http://www.w3.org/1999/xlink">
    <!-- Generator: Sketch 51.2 (57519) - http://www.bohemiancoding.com/sketch -->
    <title>noun_Close_393003</title>
    <desc>Created with Sketch.</desc>
    <defs></defs>
    <g id="Page-1" stroke="none" stroke-width="1" fill="none" fill-rule="evenodd">
        <g id="Home-A-Copy" transform="translate(-928.000000, -266.000000)" fill="#FFFFFF" fill-rule="nonzero">
            <g id="Group-2" transform="translate(470.000000, 240.000000)">
                <g id="noun_Close_393003" transform="translate(458.000000, 26.000000)">
                    <path d="M16.7362429,0.341555977 C16.4434806,0.048793711 15.9799404,0.048793711 15.711575,0.341555977 L8.53889943,7.5142315 L1.36622391,0.341555977 C1.07346164,0.048793711 0.609921388,0.048793711 0.341555977,0.341555977 C0.048793711,0.634318243 0.048793711,1.0978585 0.341555977,1.36622391 L7.5142315,8.53889943 L0.341555977,15.711575 C0.048793711,16.0043372 0.048793711,16.4678775 0.341555977,16.7362429 C0.48793711,16.882624 0.683111954,16.9558146 0.853889943,16.9558146 C1.02466793,16.9558146 1.21984278,16.882624 1.36622391,16.7362429 L8.53889943,9.56356736 L15.711575,16.7362429 C15.8579561,16.882624 16.0531309,16.9558146 16.2239089,16.9558146 C16.3946869,16.9558146 16.5898618,16.882624 16.7362429,16.7362429 C17.0290052,16.4434806 17.0290052,15.9799404 16.7362429,15.711575 L9.56356736,8.53889943 L16.7362429,1.36622391 C17.0290052,1.07346164 17.0290052,0.634318243 16.7362429,0.341555977 Z" id="Shape"></path>
                </g>
            </g>
        </g>
    </g>
</svg>